<svg id="Laag_1" data-name="Laag 1" xmlns="http://www.w3.org/2000/svg" viewBox="0 0 446.3 123.21"><defs><style>.cls-1{fill:#231f20;}.cls-2{fill:#fff;}</style></defs><rect class="cls-1" x="343.85" y="-99.63" width="4.25" height="226.77" transform="translate(319.16 349.77) rotate(-90)"/><rect class="cls-1" x="343.85" y="-90.18" width="4.25" height="226.77" transform="translate(309.71 359.22) rotate(-90)"/><rect class="cls-1" x="343.85" y="-80.73" width="4.25" height="226.77" transform="translate(300.26 368.67) rotate(-90)"/><rect class="cls-1" x="343.85" y="-71.28" width="4.25" height="226.77" transform="translate(290.81 378.13) rotate(-90)"/><rect class="cls-1" x="343.85" y="-61.82" width="4.25" height="226.77" transform="translate(281.35 387.58) rotate(-90)"/><rect class="cls-1" x="343.85" y="-52.37" width="4.25" height="226.77" transform="translate(271.9 397.03) rotate(-90)"/><rect class="cls-1" x="343.85" y="-42.92" width="4.25" height="226.77" transform="translate(262.45 406.48) rotate(-90)"/><rect class="cls-1" x="343.85" y="-33.47" width="4.25" height="226.77" transform="translate(253 415.94) rotate(-90)"/><rect class="cls-1" x="343.85" y="-24.01" width="4.25" height="226.77" transform="translate(243.54 425.39) rotate(-90)"/><path d="M55.27,79.86c-1.42-.38-2.87-.67-4.28-1.09a6.86,6.86,0,0,1-4.54-7.44c.47-2.61,1-5.2,1.32-7.83.57-4.57,1.08-9.19.14-13.76-.72-3.46-1.84-6.85-2.75-10.28a27.09,27.09,0,0,0-4.29-8.7c-1.95-2.75-3.74-5.62-5.46-8.52a8.9,8.9,0,0,0-6.6-4.76,38.41,38.41,0,0,1-5.32-1.13c-2.66-.79-5.25-1.79-7.91-2.61a13.06,13.06,0,0,0-2.52-.3A28.56,28.56,0,0,1,23.29,22.2l1.16,1.41A4.14,4.14,0,0,1,24,29.69a7.12,7.12,0,0,0-2.68,5.68c0,1.05-.15,2.08-.17,3.13-.07,3-.45,6-.09,9,.68,5.59,2.1,11.09,2.06,16.78A19.52,19.52,0,0,0,25,72.56a3.17,3.17,0,0,1,.17,2.35c-.68,1.5-1.54,2.87-.05,4.64L21,79.91l-.12.38c.76.69,1.55,1.36,2.26,2.1a2,2,0,0,0,2.23.54,8.59,8.59,0,0,1,2.42-.36c2.93,0,5.87.13,8.79-.06,3.24-.2,6.46-.73,9.7-1.06a7.25,7.25,0,0,1,2.32.14c2.8.65,5.38-.13,8.33-1.08A15.39,15.39,0,0,0,55.27,79.86ZM39.05,64l.28.16c-.15,1.29-.29,2.58-.44,3.86l-.41,0ZM35.58,81.44c-2.68,0-5.36,0-8,0a7.21,7.21,0,0,0-2.18.27A1.29,1.29,0,0,1,23.51,81a10.88,10.88,0,0,0,1.19-.28,1.49,1.49,0,0,0,1-2.23,2,2,0,0,1,0-2.18c1-1.53.78-3,.16-4.69a21,21,0,0,1-1.58-6.77c-.07-6.18-1.39-12.15-2.28-18.2a27.5,27.5,0,0,1,0-5c.08-2,.25-4.08.33-6.12a6.18,6.18,0,0,1,3-5.38c2.59,5.13,6.13,9.82,7.19,15.63a4.83,4.83,0,0,1-.33,2.87,21.51,21.51,0,0,0-2.08,8.79c-.14,3-.28,6.08-.5,9.11C29.35,71.39,31.3,75.2,35,78.2a2.75,2.75,0,0,0,3.58.37A3.44,3.44,0,0,1,35.58,81.44Zm3.55-5.67c-.2-1.9-.39-3.74-.63-6,.62,1.36,1.1,2.37,1.55,3.39A1.68,1.68,0,0,1,39.13,75.77Z" transform="translate(-13.06 -9.96)"/><path d="M113.39,37.29c-.07-1.85.14-3.86-1.16-5.37a12.34,12.34,0,0,0-7.7-4.5c-2.58-.36-5.18-.51-7.77-.8-.35,0-.89-.22-1-.46a9.05,9.05,0,0,0-4.58-4.94c-.64-.35-.75-.86-.26-1.38,1.44-1.57,2.9-3.13,5.1-3.63.54-.13,1.06-.32,1.57-.48-.24-1.67-1-2.2-2.71-2.47a6.72,6.72,0,0,1-3.24-1.09c-4.81-4-10.81-2.42-12.79,3.52q-2.09,6.23-4.1,12.46a14.59,14.59,0,0,1-5,7.29C68,36.83,66,38.1,64.11,39.37A38.37,38.37,0,0,0,51,53.17a5.09,5.09,0,0,0-.44,3.1c.39,2.1,2.32,2.61,3.77,1,1-1.07,1.75-2.36,2.65-3.51a49.63,49.63,0,0,1,3.76-4.63c3.53-3.54,8.14-5.29,12.69-7.27,0,.35.06.68.1,1,.51,4.91.78,9.88,1.62,14.74.72,4.13,2.06,8.14,3.19,12.19.58,2.08,1.36,4.1,2,6.18a8,8,0,0,1,.28,2.54,20,20,0,0,1-.49,2.4,2,2,0,0,0,1,2.33c.87.45,1.37-.14,1.87-.71a4.29,4.29,0,0,1,.61-.44,15.69,15.69,0,0,1,.37,2.58A2.69,2.69,0,0,0,88,87.12c1-.68,2.25-1.16,3.48-.09.25.21.78.1,1.2.14-.07-.51-.11-.87-.18-1.42l2.41,1c.52-1.5-.37-1.87-1.36-2.07-1.79-.37-3.59-.46-4.81-2.3-.72-1.09-1.36-2-.61-3.41.27-.52,1.34-.7,2.08-.88s1.56-.12,2.32-.26a3.32,3.32,0,0,0,1.29-.56C96,75.7,96,75.69,96.45,78.32a3,3,0,0,0,4.09,2.19c.89-.36,1.87-.56,1.15-2l4.81.33c-.11-.57-.19-.93-.28-1.38,1,.2,1.86.42,2.75.53a4.33,4.33,0,0,0,1.27-.18c-.25-.44-.4-1.11-.78-1.3-1.31-.65-2.72-1.1-4.07-1.68-1.7-.73-3.37-1.53-5.06-2.27-.88-.39-.84-1-.49-1.7,1-2,2.09-4,2.94-6.09a15.6,15.6,0,0,0,1.54-5.3,46.08,46.08,0,0,0-.8-9.82c-.91-4.4-2.35-8.69-3.56-13-.14-.52-.29-1-.54-1.9a12,12,0,0,1,2.49,0c3.46.84,7,1.53,8.8,5.25a.39.39,0,0,0,.08.1c.78.86,1.7.85,2.16-.21A6.06,6.06,0,0,0,113.39,37.29Zm-42.9,4.37a32.92,32.92,0,0,0-11.88,7.52,45.52,45.52,0,0,0-3,3.64c-.14-.54-.44-1-.34-1.4.43-1.66.69-3.41,2.06-4.66.57-.53,1.13-1.08,1.7-1.62a9.65,9.65,0,0,1,4-2.35,40.58,40.58,0,0,0,6.67-3.09A22.44,22.44,0,0,0,72,38.3C72.47,40.2,72.17,41,70.49,41.66Zm31.8-9.38a9.17,9.17,0,0,0-3.67.32A2.71,2.71,0,0,0,97,36.15c1.37,4.7,2.9,9.36,4,14.13a44.44,44.44,0,0,1,.74,9.16,10.24,10.24,0,0,1-1.13,4c-.93,2.15-2,4.23-3.08,6.31a1.6,1.6,0,0,1-.81.73c-1.38.49-2,1.66-2.76,2.78a5,5,0,0,1-2.44,2,7,7,0,0,1-4.32,0,2.65,2.65,0,0,0-2.85.83c-.23.24-.51.44-1.07.92-1-3.39-1.92-6.51-2.76-9.66-1.1-4.14-2.27-8.27-3.1-12.46a53.59,53.59,0,0,1-.85-8.94c0-1.38.67-2.77.91-4.18A24.79,24.79,0,0,0,77.07,33c-.27-1.47,1.18-3.7,2.65-3.94a19.39,19.39,0,0,1,3.63-.34c3.44.09,6.69-.31,9.26-2.89.6,1.3,1.12,2.5,1.7,3.66a2.55,2.55,0,0,0,2.9,1.5c1.45-.25,2.88-.63,4.34-.85a9.72,9.72,0,0,1,2.69-.12c2.47.32,3.27,1.13,3.91,3.67C106.19,33.22,104.27,32.58,102.29,32.28Z" transform="translate(-13.06 -9.96)"/><path d="M211.73,65a54.92,54.92,0,0,0-1.18-6.64C209,52.52,205.39,48,201.48,43.59a4.84,4.84,0,0,1-1.07-1.6c-.93-2.88-1.72-5.81-2.68-8.68a18.39,18.39,0,0,0-4.17-7.57,2.31,2.31,0,0,1-.41-3.18c2.33-3.57,5-6.7,9.08-8.51,2-.92,3.94-2.12,6-3.25A5.22,5.22,0,0,0,204,11a32.78,32.78,0,0,1-12.71,2.9c-4.18.07-7.08,2.18-8.07,6.4a39.15,39.15,0,0,0-.9,5.79c-.33,3.85-1.38,7.3-4.44,10a9.16,9.16,0,0,0-2,2.72c-3.89,7.27-7,14.81-8.1,23.06-.52,3.83-1.23,7.63-1.81,11.45a5.32,5.32,0,0,0,.87,4.27A14.73,14.73,0,0,0,168.16,74c.68-3.58,1.29-7.17,1.86-10.77.69-4.28,2.77-8,4.57-11.85.23-.48.48-.94.72-1.41a3,3,0,0,1,.22,1.25c.16,4.2,0,8.44.57,12.6a55.28,55.28,0,0,0,4,15.43c1.17,2.65,2.32,5.55,1.73,8.67a.47.47,0,0,0,.08.37c1.24,1.37,2.47,2.75,4.53,2.76H190l-2.1-1.54.23-.27,5.65,1.79c-.09-.59-.13-.87-.17-1.2l.82.18c-2-1.93-5.14-1.3-7.26-3l.1-.32,1.2-.06a10.17,10.17,0,0,0-.94-.84,1.54,1.54,0,0,1,.19-2.68c1.36-.61,2.78-1.07,4.28-1.63-.12,1.41-.21,2.75-.33,4.09a2.57,2.57,0,0,0,1.36,2.58c2.31,1.5,4.88,1.36,7.44,1.37a.94.94,0,0,0,.33-.14l-.65-.69c2.41-1,4.65-.53,7,.12a5,5,0,0,0-2.19-1.35c-2-.43-4-.69-6-1-.28,0-.71-.14-.78-.33a11.92,11.92,0,0,1-.89-2.93,13.77,13.77,0,0,1,1.65-7.65,14.18,14.18,0,0,0,1.65-4.61c.43-4.49.56-9,.81-13.5,0-.18,0-.36.05-.54l.42-.17c1.64,2.64,3.3,5.28,4.92,7.93.55.88.93,1.87,1.53,2.71a1.72,1.72,0,0,0,3.21-.48A4.22,4.22,0,0,0,211.73,65Zm-2.56-4.49a6,6,0,0,1-1.47-.82c-1.2-1.25-2.23-2.68-3.48-3.86a4.46,4.46,0,0,0-5.13-1.16c1.9,5.47.87,11,0,16.43-.4,2.45-1.82,4.75-2.83,7.09a.77.77,0,0,1-.72.32c-1.8-.84-2.91.39-4.18,1.28a26.66,26.66,0,0,1-2.9,1.64c-.24.12-.7.17-.85,0-1.33-1.23-2.64-.69-4,0a9.37,9.37,0,0,1-1,.38A63.58,63.58,0,0,1,176.85,56a4.5,4.5,0,0,1,.52-1.95A57.68,57.68,0,0,0,182,40.12a28.16,28.16,0,0,1,3.72-9.49,7.15,7.15,0,0,1,2-2c1.32-.91,2.74-1.67,4.39-2.65a23,23,0,0,1,2.7,4c1.47,3.65,2.7,7.39,3.93,11.12.49,1.47.68,3,1.11,4.52a3.33,3.33,0,0,0,.92,1.38q2.11,2,4.31,4c2.69,2.42,3.62,5.69,4.51,9Z" transform="translate(-13.06 -9.96)"/><path d="M162,59.72A78.75,78.75,0,0,0,149.92,38a31.89,31.89,0,0,1-6.62-14.37,22.44,22.44,0,0,0-1.75-5.42,7.64,7.64,0,0,0-8-4.54,12.17,12.17,0,0,0-3.25,1.26,11.33,11.33,0,0,1-6.81,1.16,62,62,0,0,0-6.24-.36,13.07,13.07,0,0,0-2.79.53l0,.44c3,.71,6,1.44,9,2.12,2.53.58,5.07,1.06,7.08,3,1.54,1.47,1.71,2.33.22,3.79a18.86,18.86,0,0,0-4.07,6.15c-1,2.23-2,4.44-2.84,6.71a10.3,10.3,0,0,0-.21,2.51c0,.61.06,1.4-.27,1.79a51.86,51.86,0,0,1-5.07,5.59,11.87,11.87,0,0,0-3.35,5c-.45,1.26-.87,2.55-1.33,3.81-.3.84-.4,1.8.45,2.19a4.48,4.48,0,0,0,2.29-.06,2.44,2.44,0,0,0,.86-.56A14,14,0,0,0,121.49,53a23.58,23.58,0,0,1,1.72-2.84,1.93,1.93,0,0,1,.62,1c1.23,5.8,1.69,11.76,3.63,17.42a14.76,14.76,0,0,1,.53,3.2c.24,2,.45,4.08.67,6.12l1.26-.27c-1.36,2.93-4.11,2.22-6.61,2.9.62.34,1,.73,1.44.77,2.19.18,4.39.35,6.59.38a2.33,2.33,0,0,0,2.44-2.23c.27-1.62.6-3.22.91-4.86a1.69,1.69,0,0,1,2.05,1.2,11,11,0,0,0,1.58,2.21c.2.3.51.76.4,1a11.19,11.19,0,0,1-1.34,2.39,8.58,8.58,0,0,1-1.57,1.35l.17.31c.5,0,1-.09,1.51-.11a26.31,26.31,0,0,1,4.25-.15c1.54.15,1.93-.06,1.56-1.6a4.47,4.47,0,0,1,.72-3.94,7.75,7.75,0,0,0,.92-2c.74-2.16,1.45-4.33,2.17-6.5.51-1.48,1.12-2.92,1.49-4.43,1.66-6.83,1.28-13.7.41-20.59-.07-.56-.16-1.11-.24-1.68l-.15-1.65.46-.14c1.65,3.19,3.31,6.37,4.94,9.56,2.13,4.12,4.2,8.27,6.38,12.36a15.41,15.41,0,0,0,2.12,2.56l.39-.26A9.12,9.12,0,0,0,162,59.72ZM146.5,66.16c-.92,3.15-2.05,6.24-3.2,9.31-.32.84-.53,2-1.87,2a3.07,3.07,0,0,1-3.22-1.82c-.49-1-.78-2.1-2.12-2.42-1.94-.48-2.9.14-3.09,2.14-.06.63-.19,1.25-.28,1.85-1.88,0-2.63-.61-2.8-2.21a72.63,72.63,0,0,0-2.08-10.83c-1.1-4.18-1.65-8.5-2.44-12.75l-.12-.64c-.17-.85-.25-2-1.33-2a3.76,3.76,0,0,0-2.32,1,10.43,10.43,0,0,0-1.56,2.53c-.41.76-.76,1.55-1.17,2.4l-2.61-.66a10.68,10.68,0,0,1,2.35-4.11c2.12-2.11,4.13-4.33,6.11-6.57a2.29,2.29,0,0,0,.42-2.55,2.74,2.74,0,0,1,0-1.85c1.08-2.65,2.13-5.32,3.44-7.86A55.72,55.72,0,0,1,132.09,26,13.14,13.14,0,0,1,137.71,31a25.41,25.41,0,0,0,2.67,3.49c2.31,2.73,3.07,6.1,3.79,9.44,1.17,5.51,2.39,11,3.24,16.57C147.68,62.28,147,64.32,146.5,66.16Z" transform="translate(-13.06 -9.96)"/><path class="cls-2" d="M38.6,78.57a3.42,3.42,0,0,1-3,2.87c-2.68,0-5.36,0-8,0a7.1,7.1,0,0,0-2.17.27A1.28,1.28,0,0,1,23.52,81a11.27,11.27,0,0,0,1.18-.28,1.49,1.49,0,0,0,1-2.23,2,2,0,0,1,0-2.18c1-1.53.78-3,.16-4.69a21,21,0,0,1-1.58-6.77c-.07-6.18-1.39-12.15-2.28-18.2a28.42,28.42,0,0,1,0-5c.08-2,.25-4.08.33-6.12a6.18,6.18,0,0,1,3-5.38c2.59,5.13,6.13,9.82,7.19,15.64a4.89,4.89,0,0,1-.33,2.86,21.51,21.51,0,0,0-2.08,8.79c-.14,3-.28,6.08-.51,9.11C29.35,71.39,31.3,75.2,35,78.2A2.74,2.74,0,0,0,38.6,78.57Z" transform="translate(-13.06 -9.96)"/><path class="cls-2" d="M38.5,69.82c.62,1.36,1.1,2.37,1.55,3.39a1.68,1.68,0,0,1-.92,2.56Z" transform="translate(-13.06 -9.96)"/><path class="cls-2" d="M39.33,64.14,38.89,68l-.41,0,.57-4Z" transform="translate(-13.06 -9.96)"/><path class="cls-2" d="M92.61,25.86c.6,1.3,1.11,2.5,1.7,3.66a2.55,2.55,0,0,0,2.9,1.5c1.45-.25,2.88-.63,4.34-.85a9.72,9.72,0,0,1,2.69-.12c2.47.32,3.27,1.13,3.91,3.67-2-.5-3.88-1.13-5.85-1.43a9,9,0,0,0-3.68.31A2.72,2.72,0,0,0,97,36.15c1.37,4.7,2.9,9.36,4,14.13a44.44,44.44,0,0,1,.74,9.16,10.19,10.19,0,0,1-1.13,4c-.93,2.15-2,4.23-3.08,6.32a1.62,1.62,0,0,1-.81.72c-1.38.49-2,1.66-2.76,2.78a5,5,0,0,1-2.44,2,7,7,0,0,1-4.32,0,2.64,2.64,0,0,0-2.85.83c-.23.24-.51.44-1.07.92-1-3.39-1.92-6.51-2.76-9.66-1.1-4.14-2.27-8.27-3.1-12.46a53.61,53.61,0,0,1-.85-9c0-1.37.67-2.76.91-4.16A24.84,24.84,0,0,0,77.07,33c-.27-1.47,1.18-3.7,2.65-3.94a19.31,19.31,0,0,1,3.63-.34C86.79,28.84,90,28.44,92.61,25.86Z" transform="translate(-13.06 -9.96)"/><path class="cls-2" d="M55.64,52.82c-.14-.54-.44-1-.34-1.4.43-1.66.69-3.41,2.06-4.66l1.7-1.61a9.67,9.67,0,0,1,4-2.36,40.58,40.58,0,0,0,6.67-3.09A22.44,22.44,0,0,0,72,38.3c.5,1.9.19,2.73-1.49,3.36a33,33,0,0,0-11.87,7.52A45.52,45.52,0,0,0,55.64,52.82Z" transform="translate(-13.06 -9.96)"/><path class="cls-2" d="M209.17,60.46a6,6,0,0,1-1.47-.82c-1.2-1.25-2.23-2.68-3.48-3.86a4.46,4.46,0,0,0-5.13-1.16c1.9,5.47.86,11,0,16.43-.4,2.45-1.82,4.75-2.83,7.09a.78.78,0,0,1-.72.32c-1.8-.84-2.91.39-4.18,1.28a25.89,25.89,0,0,1-2.91,1.64,1,1,0,0,1-.84,0c-1.33-1.23-2.64-.69-4,0-.34.17-.71.28-1,.39A63.66,63.66,0,0,1,176.85,56a4.5,4.5,0,0,1,.52-1.95A57.68,57.68,0,0,0,182,40.12a28.37,28.37,0,0,1,3.72-9.5,7.25,7.25,0,0,1,2-2c1.31-.91,2.74-1.67,4.39-2.65a23,23,0,0,1,2.7,4c1.47,3.65,2.7,7.39,3.93,11.12.49,1.47.68,3,1.11,4.52a3.26,3.26,0,0,0,.93,1.38c1.4,1.35,2.84,2.68,4.3,4,2.69,2.42,3.62,5.69,4.51,9Z" transform="translate(-13.06 -9.96)"/><path class="cls-2" d="M132.09,26A13.16,13.16,0,0,1,137.7,31a25.77,25.77,0,0,0,2.68,3.5c2.31,2.74,3.07,6.09,3.78,9.44,1.18,5.51,2.4,11,3.25,16.57.27,1.82-.37,3.85-.91,5.7-.92,3.14-2.05,6.24-3.21,9.31-.31.84-.52,2-1.86,2a3.12,3.12,0,0,1-3.23-1.83c-.48-1-.77-2.1-2.11-2.43-1.94-.47-2.9.15-3.09,2.15-.06.63-.19,1.25-.28,1.85-1.88,0-2.64-.61-2.8-2.21a71.77,71.77,0,0,0-2.09-10.84c-1.09-4.17-1.64-8.49-2.43-12.74,0-.22-.07-.43-.12-.64-.17-.85-.25-2-1.33-2a3.72,3.72,0,0,0-2.32,1,9.86,9.86,0,0,0-1.55,2.52c-.42.76-.77,1.55-1.18,2.4l-2.61-.66a10.56,10.56,0,0,1,2.35-4.11c2.12-2.11,4.12-4.34,6.11-6.57a2.29,2.29,0,0,0,.42-2.55,2.74,2.74,0,0,1,0-1.85c1.08-2.65,2.13-5.32,3.44-7.86A53.8,53.8,0,0,1,132.09,26Z" transform="translate(-13.06 -9.96)"/><path class="cls-2" d="M86.08,125.47a1.69,1.69,0,0,0,.36.3A1.25,1.25,0,0,1,86.08,125.47Z" transform="translate(-13.06 -9.96)"/><path class="cls-1" d="M39.76,126.68a3.64,3.64,0,0,1-2.4-3.94c.25-1.37.53-2.74.7-4.12a22.18,22.18,0,0,0,.07-7.27c-.37-1.83-1-3.62-1.45-5.43a14.25,14.25,0,0,0-2.26-4.59c-1-1.45-2-3-2.88-4.5a4.71,4.71,0,0,0-3.49-2.51,21,21,0,0,1-2.81-.6c-1.4-.41-2.77-.94-4.17-1.38a7.33,7.33,0,0,0-1.33-.16,15.22,15.22,0,0,1,5.4,4.63c.2.25.4.5.61.74a2.2,2.2,0,0,1-.24,3.22,3.76,3.76,0,0,0-1.42,3c0,.55-.08,1.1-.09,1.66a32.37,32.37,0,0,0-.05,4.72c.36,3,1.11,5.86,1.09,8.86a10.33,10.33,0,0,0,1,4.4,1.63,1.63,0,0,1,.09,1.24c-.36.79-.81,1.51,0,2.45l-2.18.19-.06.19c.4.37.82.72,1.19,1.12a1,1,0,0,0,1.18.28,5,5,0,0,1,1.28-.19c1.54,0,3.1.07,4.64,0,1.71-.1,3.41-.38,5.12-.56a3.58,3.58,0,0,1,1.22.08,8.12,8.12,0,0,0,4.4-.57,8.73,8.73,0,0,0-.85-.35C41.27,127.05,40.51,126.9,39.76,126.68Zm-14.51,1.18h0a.2.2,0,0,0,0,.08A.56.56,0,0,1,25.25,127.86Z" transform="translate(-13.06 -9.96)"/><path class="cls-1" d="M92,105.15a16.92,16.92,0,0,1-3.49-7.59,12,12,0,0,0-.93-2.86,4,4,0,0,0-4.2-2.4,6.14,6.14,0,0,0-1.72.67,5.88,5.88,0,0,1-3.59.6c-1.09-.11-2.2-.17-3.3-.18a6.93,6.93,0,0,0-1.47.28c0,.07,0,.15,0,.23,1.57.37,3.14.76,4.72,1.12a7.37,7.37,0,0,1,3.74,1.57c.81.77.9,1.23.12,2a9.8,9.8,0,0,0-2.15,3.25c-.51,1.17-1,2.34-1.5,3.54a5.2,5.2,0,0,0-.11,1.32c0,.33,0,.74-.14,1a27.85,27.85,0,0,1-2.68,2.95,6.21,6.21,0,0,0-1.77,2.65c-.24.66-.46,1.34-.7,2-.16.44-.22.95.24,1.15a2.24,2.24,0,0,0,1.2,0c.16,0,.31-.19.46-.3a7.3,7.3,0,0,0,2.24-3,12.24,12.24,0,0,1,.91-1.5,1.07,1.07,0,0,1,.33.55c.65,3.07.89,6.21,1.91,9.19a7.46,7.46,0,0,1,.28,1.7c.13,1.08.24,2.15.36,3.23l.66-.14c-.71,1.54-2.17,1.17-3.49,1.53a3.06,3.06,0,0,0,.76.41c1.16.09,2.32.18,3.48.2a1.24,1.24,0,0,0,1.29-1.18c.14-.86.32-1.71.48-2.57a.89.89,0,0,1,1.08.64,5.69,5.69,0,0,0,.84,1.16c.1.16.27.4.21.53a6,6,0,0,1-.71,1.26,4.48,4.48,0,0,1-.83.72l.09.16.79-.06a14.15,14.15,0,0,1,2.25-.08c.82.08,1,0,.83-.85a2.33,2.33,0,0,1,.38-2.07,4.25,4.25,0,0,0,.48-1.06c.39-1.14.77-2.28,1.15-3.43.27-.78.59-1.54.79-2.34a29.87,29.87,0,0,0,.21-10.87l-.12-.89c0-.29-.06-.58-.08-.87l.24-.07,2.61,5c1.12,2.18,2.21,4.37,3.37,6.53a8.2,8.2,0,0,0,1.11,1.35l.21-.13a4.82,4.82,0,0,0-.46-2.56A41.44,41.44,0,0,0,92,105.15Z" transform="translate(-13.06 -9.96)"/><path class="cls-1" d="M124.63,119.38a29.65,29.65,0,0,0-.63-3.51c-.82-3.06-2.72-5.46-4.79-7.77a2.58,2.58,0,0,1-.56-.84c-.49-1.52-.91-3.07-1.42-4.59a9.57,9.57,0,0,0-2.2-4,1.21,1.21,0,0,1-.21-1.68,11.29,11.29,0,0,1,4.79-4.49c1.07-.49,2.08-1.12,3.18-1.72a2.8,2.8,0,0,0-2.26.12,17.31,17.31,0,0,1-6.71,1.53,4.1,4.1,0,0,0-4.26,3.38,21.14,21.14,0,0,0-.47,3.06,7.31,7.31,0,0,1-2.35,5.25,5,5,0,0,0-1,1.44,36,36,0,0,0-4.28,12.17c-.27,2-.65,4-1,6a2.78,2.78,0,0,0,.46,2.26,7.76,7.76,0,0,0,.69-1.86c.36-1.9.68-3.79,1-5.69a24.18,24.18,0,0,1,2.42-6.26c.12-.25.25-.49.38-.74a1.63,1.63,0,0,1,.11.66c.09,2.22,0,4.45.3,6.65a29.5,29.5,0,0,0,2.11,8.15,7.65,7.65,0,0,1,.91,4.57.23.23,0,0,0,0,.2,3.25,3.25,0,0,0,2.39,1.45c.57,0,1.14,0,1.89,0l-1.11-.81a1.79,1.79,0,0,0,.13-.14l3,.95c0-.32-.07-.46-.09-.64l.43.1c-1.06-1-2.71-.69-3.83-1.59a1.21,1.21,0,0,0,0-.18l.64,0a6.57,6.57,0,0,0-.5-.45A.81.81,0,0,1,112,129c.72-.32,1.47-.57,2.26-.87-.06.75-.11,1.46-.17,2.16a1.37,1.37,0,0,0,.71,1.37,6.88,6.88,0,0,0,3.93.72c.06,0,.12-.05.18-.07l-.35-.36a5.15,5.15,0,0,1,3.67.06,2.59,2.59,0,0,0-1.15-.71c-1.06-.24-2.13-.37-3.18-.56-.15,0-.38-.07-.41-.17A6.21,6.21,0,0,1,117,129a7.15,7.15,0,0,1,.87-4,7.68,7.68,0,0,0,.87-2.44c.22-2.37.29-4.75.43-7.12a2.83,2.83,0,0,1,0-.29l.22-.09c.87,1.39,1.75,2.78,2.6,4.18.29.47.49,1,.81,1.44a.91.91,0,0,0,1.69-.26A2.32,2.32,0,0,0,124.63,119.38Z" transform="translate(-13.06 -9.96)"/><path class="cls-1" d="M68,99.57c-1.36-.19-2.74-.28-4.1-.43-.19,0-.47-.11-.52-.24A4.78,4.78,0,0,0,61,96.29c-.34-.18-.4-.45-.14-.73a5.44,5.44,0,0,1,2.69-1.92c.29-.06.56-.17.83-.24-.13-.89-.52-1.17-1.43-1.31a3.59,3.59,0,0,1-1.71-.57c-2.54-2.12-5.71-1.28-6.75,1.85-.74,2.19-1.46,4.39-2.17,6.58a7.68,7.68,0,0,1-2.64,3.85c-1,.73-2,1.41-3,2.08a20.26,20.26,0,0,0-6.94,7.28,2.64,2.64,0,0,0-.23,1.64,1.08,1.08,0,0,0,2,.55c.52-.57.92-1.24,1.4-1.85a24.79,24.79,0,0,1,2-2.44c1.87-1.87,4.3-2.8,6.7-3.85,0,.19,0,.37.06.54.26,2.6.41,5.22.85,7.79A66.13,66.13,0,0,0,54.19,122c.3,1.1.71,2.17,1,3.27a4.25,4.25,0,0,1,.15,1.33,11,11,0,0,1-.26,1.27,1,1,0,0,0,.53,1.23c.46.24.72-.07,1-.37a2.8,2.8,0,0,1,.33-.23,8.19,8.19,0,0,1,.19,1.36,1.42,1.42,0,0,0,2.18,1.26,1.38,1.38,0,0,1,1.83-.06c.14.12.42.06.63.08,0-.27-.05-.46-.09-.75l1.28.51c.27-.8-.21-1-.72-1.09-1-.2-1.9-.25-2.54-1.22-.38-.58-.72-1-.32-1.8.14-.28.7-.37,1.09-.46s.83-.07,1.23-.15a1.58,1.58,0,0,0,.68-.29c1.13-.81,1.13-.81,1.37.58a1.61,1.61,0,0,0,2.16,1.16c.47-.19,1-.3.61-1l2.54.18c-.06-.31-.1-.5-.15-.73.52.1,1,.22,1.45.28a2.59,2.59,0,0,0,.67-.1c-.13-.24-.21-.59-.41-.68-.69-.35-1.44-.59-2.15-.89-.9-.39-1.78-.81-2.67-1.21-.46-.2-.44-.51-.26-.89.52-1.06,1.11-2.11,1.55-3.21a8.37,8.37,0,0,0,.82-2.8,24.37,24.37,0,0,0-.43-5.19c-.48-2.32-1.24-4.59-1.87-6.87l-.29-1a6.25,6.25,0,0,1,1.31,0c1.83.45,3.72.81,4.65,2.77l0,.06c.41.45.9.44,1.14-.12a3.1,3.1,0,0,0,.24-1.38,4.31,4.31,0,0,0-.62-2.84A6.52,6.52,0,0,0,68,99.57Z" transform="translate(-13.06 -9.96)"/><rect class="cls-1" x="342.49" y="12.38" width="6.97" height="226.77" transform="translate(207.15 461.79) rotate(-90)"/><rect class="cls-1" x="342.49" y="0.65" width="6.97" height="226.77" transform="translate(218.88 450.06) rotate(-90)"/><rect class="cls-1" x="342.49" y="-11.08" width="6.97" height="226.77" transform="translate(230.61 438.33) rotate(-90)"/></svg>