<?xml version="1.0" encoding="utf-8"?>
<!-- Generator: Adobe Illustrator 26.0.1, SVG Export Plug-In . SVG Version: 6.00 Build 0)  -->
<svg version="1.1"
	 id="Layer_1" xmlns:cc="http://creativecommons.org/ns#" xmlns:dc="http://purl.org/dc/elements/1.1/" xmlns:inkscape="http://www.inkscape.org/namespaces/inkscape" xmlns:rdf="http://www.w3.org/1999/02/22-rdf-syntax-ns#" xmlns:svg="http://www.w3.org/2000/svg"
	 xmlns="http://www.w3.org/2000/svg" xmlns:xlink="http://www.w3.org/1999/xlink" x="0px" y="0px" viewBox="0 0 1700.8 850.4"
	 style="enable-background:new 0 0 1700.8 850.4;" xml:space="preserve">
<style type="text/css">
	.st0{fill:none;stroke:#FF0000;stroke-width:0.1417;stroke-linecap:round;stroke-linejoin:round;stroke-miterlimit:11.3386;}
	.st1{fill:none;stroke:#FF0000;stroke-width:0.2835;stroke-miterlimit:11.3386;}
	.st2{fill:none;stroke:#FF0000;stroke-width:8.035216e-03;stroke-miterlimit:11.3386;}
	.st3{fill:none;}
	.st4{fill:none;stroke:#FF00CF;stroke-miterlimit:10;}
	.st5{font-family:'MyriadPro-Regular';}
	.st6{font-size:36.8504px;}
</style>
<g id="p-1">
	<path class="st0" d="M29.1,297.7h25.5v11.3h22.7v-11.3H100v11.3h22.7v-11.3h22.7v11.3H168v-11.3h22.7v11.3h22.7v-11.3H236v11.3
		h22.7v-11.3h25.5v-17h11.3v-22.7h-11.3v-17l-11-11l8-8l-16-16l-8,8l-16-16l8-8l-16-16l-8,8l-16-16l8-8l-16-16l-8,8l-16-16l8-8
		l-16-16l-8,8l-16-16l8-8l-16-16l-8,8l-16-16l8-8l-16-16l-8,8l-11-11h-17V31.3H46.1v11.3h-17v25.5H17.8v22.7h11.3v22.7H17.8v22.7
		h11.3v22.7H17.8v22.7h11.3v22.7H17.8v22.7h11.3v22.7H17.8v22.7h11.3V297.7z"/>
</g>
<g id="p-2">
	<path class="st0" d="M312.6,297.7h25.5v11.3h22.7v-11.3h22.7v11.3h22.7v-11.3h22.7v11.3h22.7v-11.3h22.7v11.3h22.7v-11.3h22.7v11.3
		h22.7v-11.3h25.5v-17H579v-22.7h-11.3v-17l-11-11l8-8l-16-16l-8,8l-16-16l8-8l-16-16l-8,8l-16-16l8-8l-16-16l-8,8l-16-16l8-8
		l-16-16l-8,8l-16-16l8-8l-16-16l-8,8l-16-16l8-8l-16-16l-8,8l-11-11h-17V31.3h-22.7v11.3h-17v25.5h-11.3v22.7h11.3v22.7h-11.3v22.7
		h11.3v22.7h-11.3v22.7h11.3v22.7h-11.3v22.7h11.3v22.7h-11.3v22.7h11.3V297.7z"/>
</g>
<path class="st0" d="M598.9,311.9h25.5v-11.3h22.7v11.3h22.7v-11.3h22.7v11.3h22.7v-11.3h22.7v11.3h22.7v-11.3h22.7v11.3h22.7v-11.3
	h22.7v11.3H854h11.3v-11.3v-25.5H854v-22.7h11.3v-22.7H854V207h11.3v-22.7H854v-22.7h11.3V139H854v-22.7h11.3V93.7H854V71h11.3V45.5
	V34.1H854h-25.5v11.3h-22.7V34.1h-22.7v11.3h-22.7V34.1h-22.7v11.3h-22.7V34.1h-22.7v11.3h-22.7V34.1h-22.7v11.3h-22.7V34.1h-25.5
	h-11.3v11.3V71h11.3v22.7h-11.3v22.7h11.3V139h-11.3v22.7h11.3v22.7h-11.3V207h11.3v22.7h-11.3v22.7h11.3v22.7h-11.3v25.5v11.3
	H598.9z"/>
<path class="st0" d="M888,311.9h17v-11.3h22.7v11.3h17h-3.3v-11.3v-25.5h8v-22.7h-8v-22.7h8V207h-8v-22.7h8v-22.7h-8V139h8v-22.7h-8
	V93.7h8V71h-8V45.5V34.1h3.3h-17v11.3H905V34.1h-17v11.3V71h-11.3v22.7H888v22.7h-11.3V139H888v22.7h-11.3v22.7H888V207h-11.3v22.7
	H888v22.7h-11.3v22.7H888v25.5V311.9z"/>
<path class="st0" d="M972.1,311.9h15.6v-11.3h22.7v11.3h22.7v-11.3h22.7v11.3h22.7v-11.3h22.7v11.3h22.7v-11.3h22.7v11.3h22.7v-11.3
	h22.7v11.3h22.7v-11.3h22.7v11.3h15.6h4.7v-11.3v-25.5h-8v-22.7h8v-22.7h-8V207h8v-22.7h-8v-22.7h8V139h-8v-22.7h8V93.7h-8V71h8
	V45.5V34.1h-4.7h-15.6v11.3h-22.7V34.1h-22.7v11.3h-22.7V34.1h-22.7v11.3h-22.7V34.1H1101v11.3h-22.7V34.1h-22.7v11.3H1033V34.1
	h-22.7v11.3h-22.7V34.1h-15.6h-4.7v11.3V71h8v22.7h-8v22.7h8V139h-8v22.7h8v22.7h-8V207h8v22.7h-8v22.7h8v22.7h-8v25.5v11.3H972.1z"
	/>
<path class="st0" d="M1273.4,311.9h17v-11.3h22.7v11.3h17v-11.3v-25.5h11.3v-22.7h-11.3v-22.7h11.3V207h-11.3v-22.7h11.3v-22.7
	h-11.3V139h11.3v-22.7h-11.3V93.7h11.3V71h-11.3V45.5V34.1h-17v11.3h-22.7V34.1h-17h3.3v11.3V71h-8v22.7h8v22.7h-8V139h8v22.7h-8
	v22.7h8V207h-8v22.7h8v22.7h-8v22.7h8v25.5v11.3H1273.4z"/>
<path class="st0" d="M1357.5,311.9h25.5v-11.3h22.7v11.3h22.7v-11.3h22.7v11.3h22.7v-11.3h22.7v11.3h22.7v-11.3h22.7v11.3h22.7
	v-11.3h22.7v11.3h25.5v-11.3v-25.5h11.3v-22.7h-11.3v-22.7h11.3V207h-11.3v-22.7h11.3v-22.7h-11.3V139h11.3v-22.7h-11.3V93.7h11.3
	V71h-11.3V45.5V34.1h-25.5v11.3h-22.7V34.1h-22.7v11.3h-22.7V34.1h-22.7v11.3h-22.7V34.1H1451v11.3h-22.7V34.1h-22.7v11.3H1383V34.1
	h-25.5h-11.3v11.3V71h11.3v22.7h-11.3v22.7h11.3V139h-11.3v22.7h11.3v22.7h-11.3V207h11.3v22.7h-11.3v22.7h11.3v22.7h-11.3v25.5
	v11.3H1357.5z"/>
<path class="st1" d="M1584.6,189.2L1584.6,189.2c-5.4,0-9.7-4.4-9.7-9.7v-13c0-5.4,4.4-9.7,9.7-9.7l0,0c5.4,0,9.7,4.4,9.7,9.7v13
	C1594.4,184.9,1590,189.2,1584.6,189.2z"/>
<g>
	<polyline class="st2" points="1021.9,290.2 1022,277.1 1022.2,256 1022.4,235.5 1022.4,235.4 1022.4,233.5 1022.4,233.5 
		1022.5,220.5 1022.8,178.7 1022.9,163.6 1023,158.2 1023.2,121.8 1023.4,106.8 1023.7,65 1023.7,60.4 1023.8,55.1 1023.8,54.5 
		1023.9,54.5 1025.7,54.5 1028.3,54.5 1032.6,54.5 1041.7,54.6 1042.8,54.6 1091.7,55 1189.5,55.7 1201.7,55.8 1202.8,55.8 
		1202.8,57.9 1202.8,61.8 1202.7,66.4 1202.3,123.2 1202,159.6 1201.8,179.9 1201.5,225.9 1201.5,225.9 1201.4,234.9 1201.3,257.4 
		1201,291.6 1190.5,291.5 1187.7,291.5 1089.9,290.7 1076.8,290.6 1021.9,290.2 	"/>
	<g>
		<polyline class="st2" points="1183.9,126.8 1146.9,126.5 1146.6,161.1 1146.6,166.2 1183.6,166.5 1186.3,166.5 1186.6,126.8 
			1183.9,126.8 		"/>
		<polyline class="st2" points="1185.4,274.4 1185.6,254.3 1185.8,234.7 1185.7,234.7 1183.1,234.7 1146.1,234.4 1146.1,234.5 
			1145.9,254 1145.8,274.1 1182.8,274.3 1185.4,274.4 		"/>
		<polyline class="st2" points="1091.8,273.6 1131.4,273.9 1131.6,253.9 1131.8,234.3 1131.7,234.3 1092.1,234 1092.1,234.1 
			1091.9,253.6 1091.8,273.6 		"/>
		<polyline class="st2" points="1037.8,273.2 1077.4,273.5 1077.6,253.4 1077.8,233.8 1077.7,233.8 1038.1,233.5 1038.1,233.7 
			1037.9,253.1 1037.8,273.2 		"/>
		<polyline class="st2" points="1183.5,180.8 1146.5,180.5 1146.2,220.2 1183.2,220.5 1185.9,220.5 1186.2,180.8 1183.5,180.8 		"/>
		<polyline class="st2" points="1186.7,112.5 1187,72.8 1184.3,72.8 1147.3,72.5 1147,112.2 1184,112.5 1186.7,112.5 		"/>
		<polyline class="st2" points="1092.6,165.8 1132.3,166.1 1132.3,161 1132.6,126.4 1092.9,126.1 1092.6,160.7 1092.6,165.8 		"/>
		<polyline class="st2" points="1092.2,219.8 1131.9,220.1 1132.2,180.4 1092.5,180.1 1092.2,219.8 		"/>
		<polyline class="st2" points="1038.6,165.4 1078.3,165.7 1078.3,160.6 1078.6,126 1038.9,125.7 1038.6,160.3 1038.6,165.4 		"/>
		<polyline class="st2" points="1038.2,219.4 1077.9,219.7 1078.2,180 1038.5,179.7 1038.2,219.4 		"/>
		<polyline class="st2" points="1093.3,72.1 1093,111.8 1132.7,112.1 1133,72.4 1093.3,72.1 		"/>
		
			<rect x="1039.2" y="71.8" transform="matrix(7.702776e-03 -1 1 7.702776e-03 959.1594 1149.9399)" class="st2" width="39.7" height="39.7"/>
	</g>
</g>
<g>
	<polyline class="st2" points="46.2,565.8 97.1,565.8 109.3,565.8 200.2,565.8 202.8,565.8 212.6,565.8 212.6,533.7 212.6,512.5 
		212.6,504.1 212.6,504.1 212.6,460.9 212.6,441.8 212.6,407.6 212.6,354.2 212.6,349.9 212.6,346.2 212.6,344.3 211.6,344.3 
		200.2,344.3 109.3,344.3 63.9,344.3 62.9,344.3 54.3,344.3 50.4,344.3 48,344.3 46.2,344.3 46.2,344.3 46.2,344.9 46.2,349.9 
		46.2,354.2 46.2,393.4 46.2,407.6 46.2,441.8 46.2,446.9 46.2,461 46.2,500.3 46.2,512.5 46.2,512.5 46.2,514.3 46.2,514.4 
		46.2,533.7 46.2,553.6 46.2,565.8 	"/>
</g>
<g>
	<polyline class="st2" points="31.1,578.6 31.1,564.9 31.1,542.6 31.1,521.1 31.1,520.9 31.1,519 31.1,519 31.1,505.3 31.1,461.4 
		31.1,445.5 31.1,439.9 31.1,401.6 31.1,385.8 31.1,341.9 31.1,337.1 31.1,331.5 31.1,330.8 31.2,330.8 33.2,330.8 36.1,330.8 
		40.7,330.8 50.8,330.8 52,330.8 105.7,330.8 213,330.8 226.4,330.8 227.7,330.8 227.7,333 227.7,337.1 227.7,341.9 227.7,401.6 
		227.7,439.9 227.7,461.2 227.7,509.6 227.7,509.6 227.7,519 227.7,542.6 227.7,578.6 216.1,578.6 213,578.6 105.7,578.6 
		91.3,578.6 31.1,578.6 	"/>
</g>
<rect x="103.4" y="213.2" class="st3" width="112.6" height="47.6"/>
<rect x="57.3" y="243.2" class="st3" width="99.4" height="35.1"/>
<text transform="matrix(1 0 0 1 57.3065 269.3989)" class="st4 st5 st6">Side</text>
<rect x="349.4" y="236.4" class="st3" width="99.4" height="35.1"/>
<text transform="matrix(1 0 0 1 349.4019 262.5623)" class="st4 st5 st6">Side</text>
<rect x="638.2" y="236" class="st3" width="172.5" height="35.1"/>
<text transform="matrix(1 0 0 1 638.176 262.1464)" class="st4 st5 st6">Bottom</text>
<rect x="885.3" y="323.8" class="st3" width="172.5" height="35.1"/>
<text transform="matrix(1 0 0 1 885.2758 349.9865)" class="st4 st5 st6">Top</text>
<rect x="1451.5" y="323.8" class="st3" width="172.5" height="35.1"/>
<text transform="matrix(1 0 0 1 1451.4575 349.9865)" class="st4 st5 st6">Back</text>
<rect x="1045.5" y="323.8" class="st3" width="172.5" height="35.1"/>
<text transform="matrix(1 0 0 1 1045.5112 349.9865)" class="st4 st5 st6">Front</text>
</svg>
